<?xml version="1.0" encoding="UTF-8" standalone="no"?>
<svg
   xmlns:dc="http://purl.org/dc/elements/1.1/"
   xmlns:cc="http://creativecommons.org/ns#"
   xmlns:rdf="http://www.w3.org/1999/02/22-rdf-syntax-ns#"
   xmlns:svg="http://www.w3.org/2000/svg"
   xmlns="http://www.w3.org/2000/svg"
   xmlns:sodipodi="http://sodipodi.sourceforge.net/DTD/sodipodi-0.dtd"
   xmlns:inkscape="http://www.inkscape.org/namespaces/inkscape"
   width="48"
   height="48"
   viewBox="0 0 48 48"
   id="svg2"
   version="1.1"
   inkscape:version="0.48.4 r9939"
   sodipodi:docname="bugs.svg">
  <metadata
     id="metadata12">
    <rdf:RDF>
      <cc:Work
         rdf:about="">
        <dc:format>image/svg+xml</dc:format>
        <dc:type
           rdf:resource="http://purl.org/dc/dcmitype/StillImage" />
      </cc:Work>
    </rdf:RDF>
  </metadata>
  <defs
     id="defs10" />
  <sodipodi:namedview
     pagecolor="#ffffff"
     bordercolor="#666666"
     borderopacity="1"
     objecttolerance="10"
     gridtolerance="10"
     guidetolerance="10"
     inkscape:pageopacity="0"
     inkscape:pageshadow="2"
     inkscape:window-width="661"
     inkscape:window-height="619"
     id="namedview8"
     showgrid="false"
     inkscape:zoom="4.9166667"
     inkscape:cx="20.893683"
     inkscape:cy="24"
     inkscape:window-x="341"
     inkscape:window-y="429"
     inkscape:window-maximized="0"
     inkscape:current-layer="layer1" />
  <path
     d="M0 0h48v48h-48z"
     fill="none"
     id="path4" />
  <g
     inkscape:groupmode="layer"
     id="layer1"
     inkscape:label="a"
     style="display:inline">
    <path
       inkscape:connector-curvature="0"
       d="m 40,16 h -5.62 c -0.9,-1.56 -2.14,-2.91 -3.63,-3.92 L 34,8.83 31.17,6 26.82,10.35 C 25.92,10.13 24.97,10 24,10 c -0.97,0 -1.92,0.13 -2.82,0.35 L 16.83,6 14,8.83 17.25,12.08 C 15.76,13.09 14.52,14.44 13.62,16 H 8 v 4 h 4.18 C 12.07,20.65 12,21.32 12,22 v 2 H 8 v 4 h 4 v 2 c 0,0.68 0.07,1.35 0.18,2 H 8 v 4 h 5.62 c 2.07,3.58 5.94,6 10.38,6 4.44,0 8.31,-2.42 10.38,-6 H 40 V 32 H 35.82 C 35.93,31.35 36,30.68 36,30 v -2 h 4 v -4 h -4 v -2 c 0,-0.68 -0.07,-1.35 -0.18,-2 H 40 V 16 z M 28,32 h -8 v -4 h 8 v 4 z m 0,-8 h -8 v -4 h 8 v 4 z"
       id="path6"
       style="fill:none;fill-opacity:1;stroke:#ffffff;stroke-opacity:1;stroke-width:6;stroke-miterlimit:4;stroke-dasharray:none;stroke-linejoin:round" />
  </g>
  <g
     inkscape:groupmode="layer"
     id="layer2"
     inkscape:label="b"
     style="display:inline">
    <path
       inkscape:connector-curvature="0"
       d="m 40,16 h -5.62 c -0.9,-1.56 -2.14,-2.91 -3.63,-3.92 L 34,8.83 31.17,6 26.82,10.35 C 25.92,10.13 24.97,10 24,10 c -0.97,0 -1.92,0.13 -2.82,0.35 L 16.83,6 14,8.83 17.25,12.08 C 15.76,13.09 14.52,14.44 13.62,16 H 8 v 4 h 4.18 C 12.07,20.65 12,21.32 12,22 v 2 H 8 v 4 h 4 v 2 c 0,0.68 0.07,1.35 0.18,2 H 8 v 4 h 5.62 c 2.07,3.58 5.94,6 10.38,6 4.44,0 8.31,-2.42 10.38,-6 H 40 V 32 H 35.82 C 35.93,31.35 36,30.68 36,30 v -2 h 4 v -4 h -4 v -2 c 0,-0.68 -0.07,-1.35 -0.18,-2 H 40 V 16 z M 28,32 h -8 v -4 h 8 v 4 z m 0,-8 h -8 v -4 h 8 v 4 z"
       id="path6-9"
       style="fill:#ffd729;fill-opacity:1;stroke:none" />
  </g>
</svg>
