<?xml version="1.0" encoding="UTF-8" standalone="no"?>
<!-- Created with Inkscape (http://www.inkscape.org/) -->

<svg
   xmlns:dc="http://purl.org/dc/elements/1.1/"
   xmlns:cc="http://creativecommons.org/ns#"
   xmlns:rdf="http://www.w3.org/1999/02/22-rdf-syntax-ns#"
   xmlns:svg="http://www.w3.org/2000/svg"
   xmlns="http://www.w3.org/2000/svg"
   xmlns:sodipodi="http://sodipodi.sourceforge.net/DTD/sodipodi-0.dtd"
   xmlns:inkscape="http://www.inkscape.org/namespaces/inkscape"
   width="100"
   height="100"
   id="svg2"
   version="1.1"
   inkscape:version="0.48.4 r9939"
   sodipodi:docname="dice.svg">
  <defs
     id="defs4" />
  <sodipodi:namedview
     id="base"
     pagecolor="#ffffff"
     bordercolor="#666666"
     borderopacity="1.0"
     inkscape:pageopacity="0.0"
     inkscape:pageshadow="2"
     inkscape:zoom="3.959798"
     inkscape:cx="27.780188"
     inkscape:cy="53.683777"
     inkscape:document-units="px"
     inkscape:current-layer="layer2"
     showgrid="false"
     inkscape:window-width="1680"
     inkscape:window-height="956"
     inkscape:window-x="0"
     inkscape:window-y="33"
     inkscape:window-maximized="1" />
  <metadata
     id="metadata7">
    <rdf:RDF>
      <cc:Work
         rdf:about="">
        <dc:format>image/svg+xml</dc:format>
        <dc:type
           rdf:resource="http://purl.org/dc/dcmitype/StillImage" />
        <dc:title />
      </cc:Work>
    </rdf:RDF>
  </metadata>
  <g
     inkscape:groupmode="layer"
     id="layer2"
     inkscape:label="dice">
    <path
       style="fill:#929292;fill-opacity:1;fill-rule:evenodd;stroke:#000000;stroke-width:4;stroke-miterlimit:4;stroke-opacity:1;stroke-dasharray:none"
       d="m 14.017566,5.831265 c -4.5228172,0 -8.1693521,3.646535 -8.1693521,8.169352 l 0,71.998766 c 0,4.522817 3.6465349,8.169352 8.1693521,8.169352 l 71.998766,0 c 4.522817,0 8.135454,-3.646535 8.135454,-8.169352 l 0,-71.998766 c 0,-4.522817 -3.612637,-8.169352 -8.135454,-8.169352 l -71.998766,0 z m 13.321805,10.067624 c 6.418696,0 11.62692,5.208224 11.62692,11.62692 0,6.418695 -5.208224,11.626919 -11.62692,11.626919 -6.418695,0 -11.626919,-5.208224 -11.626919,-11.626919 0,-6.418696 5.208224,-11.62692 11.626919,-11.62692 z m 45.558542,0 c 6.418695,0 11.62692,5.208224 11.62692,11.62692 0,6.418695 -5.208225,11.626919 -11.62692,11.626919 -6.418695,0 -11.626919,-5.208224 -11.626919,-11.626919 0,-6.418696 5.208224,-11.62692 11.626919,-11.62692 z M 50.016949,38.610365 c 6.418695,0 11.593022,5.208224 11.593022,11.626919 0,6.418695 -5.174327,11.593022 -11.593022,11.593022 -6.418695,0 -11.626919,-5.174327 -11.626919,-11.593022 0,-6.418695 5.208224,-11.626919 11.626919,-11.626919 z M 27.339371,61.457431 c 6.418696,0 11.62692,5.208224 11.62692,11.626919 0,6.418696 -5.208224,11.62692 -11.62692,11.62692 -6.418695,0 -11.626919,-5.208224 -11.626919,-11.62692 0,-6.418695 5.208224,-11.626919 11.626919,-11.626919 z m 45.558542,0 c 6.418695,0 11.62692,5.208224 11.62692,11.626919 0,6.418696 -5.208225,11.62692 -11.62692,11.62692 -6.418695,0 -11.626919,-5.208224 -11.626919,-11.62692 0,-6.418695 5.208224,-11.626919 11.626919,-11.626919 z"
       id="rect3083"
       inkscape:connector-curvature="0" />
    <path
       style="fill:#ffffff;fill-opacity:1;fill-rule:evenodd;stroke:none;stroke-width:1.01015257999999997;stroke-linecap:round;stroke-linejoin:round;stroke-miterlimit:4;stroke-opacity:1;stroke-dasharray:none;stroke-dashoffset:0"
       d="M 26.102551,36.845 C 23.073743,36.461399 20.267,34.425313 18.878201,31.604262 18.126069,30.076464 18.05747,29.735704 18.05747,27.527386 c 0,-2.208319 0.0686,-2.549079 0.820731,-4.076876 2.286844,-4.64524 7.962546,-6.645392 12.524174,-4.413595 3.674972,1.797996 5.938733,6.088927 5.231289,9.915842 -0.95703,5.177053 -5.440398,8.536985 -10.531113,7.892243 z"
       id="path3751"
       inkscape:connector-curvature="0" />
    <path
       style="fill:#ffffff;fill-opacity:1;fill-rule:evenodd;stroke:none"
       d="m 71.559415,36.845 c -4.876192,-0.617573 -8.649825,-5.526374 -8.034486,-10.451384 0.375248,-3.003382 2.662518,-6.154602 5.365398,-7.392022 5.994444,-2.744347 12.968614,1.363257 13.380278,7.880634 0.378877,5.998302 -4.701692,10.723878 -10.71119,9.962772 z"
       id="path3753"
       inkscape:connector-curvature="0" />
    <path
       style="fill:#ffffff;fill-opacity:1;fill-rule:evenodd;stroke:none"
       d="m 46.617778,58.986714 c -2.64225,-1.107945 -4.45781,-2.981087 -5.456097,-5.629144 -0.795097,-2.109076 -0.640118,-5.225621 0.356007,-7.159133 2.473822,-4.801768 8.04877,-6.720854 12.695031,-4.370061 4.576395,2.315444 6.448828,7.911385 4.18552,12.508817 -0.971933,1.974276 -2.560852,3.527695 -4.562392,4.460457 -2.100043,0.978667 -5.144812,1.058419 -7.218069,0.189064 z"
       id="path3755"
       inkscape:connector-curvature="0" />
    <path
       style="fill:#ffffff;fill-opacity:1;fill-rule:evenodd;stroke:none"
       d="m 25.128537,82.224867 c -4.019126,-0.995885 -6.937805,-4.509765 -7.153403,-8.612185 -0.213574,-4.063895 1.827917,-7.350816 5.689263,-9.160051 1.252945,-0.587067 1.791988,-0.686023 3.736984,-0.686023 1.937523,0 2.485885,0.09985 3.716872,0.676816 6.915127,3.241119 7.590496,12.670628 1.189595,16.609142 -2.274474,1.399498 -4.678305,1.792017 -7.179311,1.172301 z"
       id="path3757"
       inkscape:connector-curvature="0" />
    <path
       style="fill:#ffffff;fill-opacity:1;fill-rule:evenodd;stroke:none"
       d="m 70.459132,82.180347 c -2.783704,-0.735754 -5.562646,-3.321827 -6.489786,-6.03937 -0.623201,-1.826668 -0.556142,-4.677986 0.152918,-6.502014 0.784635,-2.01844 2.667812,-4.009151 4.77297,-5.045516 1.521165,-0.748868 1.894378,-0.826839 3.957701,-0.826839 2.028861,0 2.457778,0.08593 3.919651,0.785307 3.665304,1.753514 5.721895,5.119287 5.511279,9.019641 -0.229314,4.246612 -3.310533,7.840339 -7.48088,8.725195 -1.710849,0.363004 -2.622449,0.338576 -4.343853,-0.116404 z"
       id="path3759"
       inkscape:connector-curvature="0" />
  </g>
</svg>
