<?xml version="1.0" encoding="UTF-8" standalone="no"?>
<svg
   xmlns:dc="http://purl.org/dc/elements/1.1/"
   xmlns:cc="http://creativecommons.org/ns#"
   xmlns:rdf="http://www.w3.org/1999/02/22-rdf-syntax-ns#"
   xmlns:svg="http://www.w3.org/2000/svg"
   xmlns="http://www.w3.org/2000/svg"
   xmlns:sodipodi="http://sodipodi.sourceforge.net/DTD/sodipodi-0.dtd"
   xmlns:inkscape="http://www.inkscape.org/namespaces/inkscape"
   width="48"
   height="48"
   viewBox="0 0 48 48"
   version="1.1"
   id="svg6"
   sodipodi:docname="group.svg"
   inkscape:version="0.92.5 (2060ec1f9f, 2020-04-08)">
  <metadata
     id="metadata12">
    <rdf:RDF>
      <cc:Work
         rdf:about="">
        <dc:format>image/svg+xml</dc:format>
        <dc:type
           rdf:resource="http://purl.org/dc/dcmitype/StillImage" />
      </cc:Work>
    </rdf:RDF>
  </metadata>
  <defs
     id="defs10" />
  <sodipodi:namedview
     pagecolor="#ffffff"
     bordercolor="#666666"
     borderopacity="1"
     objecttolerance="10"
     gridtolerance="10"
     guidetolerance="10"
     inkscape:pageopacity="0"
     inkscape:pageshadow="2"
     inkscape:window-width="1680"
     inkscape:window-height="993"
     id="namedview8"
     showgrid="false"
     inkscape:zoom="4.9166667"
     inkscape:cx="26.644068"
     inkscape:cy="24.61017"
     inkscape:window-x="1680"
     inkscape:window-y="0"
     inkscape:window-maximized="1"
     inkscape:current-layer="layer2" />
  <path
     d="m 1.25,1.2 h 45.5 V 46.8 H 1.25 Z"
     id="path2"
     inkscape:connector-curvature="0"
     style="fill:none;stroke-width:1" />
  <g
     inkscape:groupmode="layer"
     id="layer2"
     inkscape:label="b"
     style="display:inline">
    <path
       inkscape:connector-curvature="0"
       d="m 31.583333,22.1 c 3.137605,0 5.668542,-2.5555 5.668542,-5.7 0,-3.1445 -2.530937,-5.7 -5.668542,-5.7 -3.137604,0 -5.6875,2.5555 -5.6875,5.7 0,3.1445 2.549896,5.7 5.6875,5.7 z m -15.166666,0 c 3.137604,0 5.668541,-2.5555 5.668541,-5.7 0,-3.1445 -2.530937,-5.7 -5.668541,-5.7 -3.137604,0 -5.6875,2.5555 -5.6875,5.7 0,3.1445 2.549896,5.7 5.6875,5.7 z m 0,3.8 c -4.426771,0 -13.2708339,2.223 -13.2708339,6.65 V 37.3 H 29.6875 v -4.75 c 0,-4.427 -8.844062,-6.65 -13.270833,-6.65 z m 15.166666,0 c -0.549791,0 -1.165937,0.038 -1.829479,0.1045 2.199167,1.5865 3.725313,3.724 3.725313,6.5455 v 4.75 h 11.375 v -4.75 c 0,-4.427 -8.844063,-6.65 -13.270834,-6.65 z"
       id="path4-3"
       style="fill:none;fill-opacity:1;stroke:#ffffff;stroke-width:6;stroke-miterlimit:4;stroke-dasharray:none;stroke-opacity:1" />
  </g>
  <g
     inkscape:groupmode="layer"
     id="layer1"
     inkscape:label="a"
     style="display:inline">
    <path
       inkscape:connector-curvature="0"
       d="m 31.583333,22.1 c 3.137605,0 5.668542,-2.5555 5.668542,-5.7 0,-3.1445 -2.530937,-5.7 -5.668542,-5.7 -3.137604,0 -5.6875,2.5555 -5.6875,5.7 0,3.1445 2.549896,5.7 5.6875,5.7 z m -15.166666,0 c 3.137604,0 5.668541,-2.5555 5.668541,-5.7 0,-3.1445 -2.530937,-5.7 -5.668541,-5.7 -3.137604,0 -5.6875,2.5555 -5.6875,5.7 0,3.1445 2.549896,5.7 5.6875,5.7 z m 0,3.8 c -4.426771,0 -13.2708339,2.223 -13.2708339,6.65 V 37.3 H 29.6875 v -4.75 c 0,-4.427 -8.844062,-6.65 -13.270833,-6.65 z m 15.166666,0 c -0.549791,0 -1.165937,0.038 -1.829479,0.1045 2.199167,1.5865 3.725313,3.724 3.725313,6.5455 v 4.75 h 11.375 v -4.75 c 0,-4.427 -8.844063,-6.65 -13.270834,-6.65 z"
       id="path4"
       style="fill:#ff9800;fill-opacity:1;stroke-width:1" />
  </g>
</svg>
