<?xml version="1.0" encoding="UTF-8" standalone="no"?>
<svg
   xmlns:dc="http://purl.org/dc/elements/1.1/"
   xmlns:cc="http://creativecommons.org/ns#"
   xmlns:rdf="http://www.w3.org/1999/02/22-rdf-syntax-ns#"
   xmlns:svg="http://www.w3.org/2000/svg"
   xmlns="http://www.w3.org/2000/svg"
   xmlns:sodipodi="http://sodipodi.sourceforge.net/DTD/sodipodi-0.dtd"
   xmlns:inkscape="http://www.inkscape.org/namespaces/inkscape"
   width="48"
   height="48"
   viewBox="0 0 48 48"
   id="svg2"
   version="1.1"
   inkscape:version="0.48.4 r9939"
   sodipodi:docname="map.svg">
  <metadata
     id="metadata12">
    <rdf:RDF>
      <cc:Work
         rdf:about="">
        <dc:format>image/svg+xml</dc:format>
        <dc:type
           rdf:resource="http://purl.org/dc/dcmitype/StillImage" />
      </cc:Work>
    </rdf:RDF>
  </metadata>
  <defs
     id="defs10" />
  <sodipodi:namedview
     pagecolor="#ffffff"
     bordercolor="#666666"
     borderopacity="1"
     objecttolerance="10"
     gridtolerance="10"
     guidetolerance="10"
     inkscape:pageopacity="0"
     inkscape:pageshadow="2"
     inkscape:window-width="1280"
     inkscape:window-height="930"
     id="namedview8"
     showgrid="false"
     inkscape:zoom="4.9166667"
     inkscape:cx="-0.61016933"
     inkscape:cy="24"
     inkscape:window-x="0"
     inkscape:window-y="33"
     inkscape:window-maximized="1"
     inkscape:current-layer="layer2" />
  <path
     d="M0 0h48v48h-48z"
     fill="none"
     id="path6" />
  <g
     inkscape:groupmode="layer"
     id="layer2"
     inkscape:label="b"
     style="display:inline">
    <path
       inkscape:connector-curvature="0"
       d="M 41,6 C 40.89,6 40.79,6.01 40.69,6.05 L 30,10.2 18,6 6.73,9.8 C 6.31,9.94 6,10.3 6,10.76 V 41 c 0,0.55 0.45,1 1,1 0.11,0 0.21,-0.01 0.31,-0.05 L 18,37.8 30,42 41.28,38.21 C 41.7,38.06 42,37.7 42,37.24 V 7 C 42,6.45 41.55,6 41,6 z M 30,38 18,33.79 V 10 l 12,4.21 V 38 z"
       id="path4-7"
       style="fill:none;stroke:#ffffff;stroke-width:6;stroke-miterlimit:4;stroke-opacity:1;stroke-dasharray:none;stroke-linejoin:round" />
  </g>
  <g
     inkscape:groupmode="layer"
     id="layer1"
     inkscape:label="a"
     style="display:inline">
    <path
       inkscape:connector-curvature="0"
       d="M 41,6 C 40.89,6 40.79,6.01 40.69,6.05 L 30,10.2 18,6 6.73,9.8 C 6.31,9.94 6,10.3 6,10.76 V 41 c 0,0.55 0.45,1 1,1 0.11,0 0.21,-0.01 0.31,-0.05 L 18,37.8 30,42 41.28,38.21 C 41.7,38.06 42,37.7 42,37.24 V 7 C 42,6.45 41.55,6 41,6 z M 30,38 18,33.79 V 10 l 12,4.21 V 38 z"
       id="path4"
       style="fill:#ff9800;fill-opacity:1;stroke:none" />
  </g>
</svg>
