<?xml version="1.0" encoding="UTF-8" standalone="no"?>
<svg
   xmlns:dc="http://purl.org/dc/elements/1.1/"
   xmlns:cc="http://creativecommons.org/ns#"
   xmlns:rdf="http://www.w3.org/1999/02/22-rdf-syntax-ns#"
   xmlns:svg="http://www.w3.org/2000/svg"
   xmlns="http://www.w3.org/2000/svg"
   xmlns:sodipodi="http://sodipodi.sourceforge.net/DTD/sodipodi-0.dtd"
   xmlns:inkscape="http://www.inkscape.org/namespaces/inkscape"
   width="48"
   height="48"
   viewBox="0 0 48 48"
   id="svg2"
   version="1.1"
   inkscape:version="0.48.4 r9939"
   sodipodi:docname="share.svg">
  <metadata
     id="metadata12">
    <rdf:RDF>
      <cc:Work
         rdf:about="">
        <dc:format>image/svg+xml</dc:format>
        <dc:type
           rdf:resource="http://purl.org/dc/dcmitype/StillImage" />
      </cc:Work>
    </rdf:RDF>
  </metadata>
  <defs
     id="defs10" />
  <sodipodi:namedview
     pagecolor="#ffffff"
     bordercolor="#666666"
     borderopacity="1"
     objecttolerance="10"
     gridtolerance="10"
     guidetolerance="10"
     inkscape:pageopacity="0"
     inkscape:pageshadow="2"
     inkscape:window-width="1079"
     inkscape:window-height="550"
     id="namedview8"
     showgrid="false"
     inkscape:zoom="4.9166667"
     inkscape:cx="-0.61016949"
     inkscape:cy="24"
     inkscape:window-x="0"
     inkscape:window-y="33"
     inkscape:window-maximized="0"
     inkscape:current-layer="layer1" />
  <path
     d="M0 0h48v48h-48z"
     fill="none"
     id="path4" />
  <g
     inkscape:groupmode="layer"
     id="layer1"
     inkscape:label="b">
    <path
       inkscape:connector-curvature="0"
       d="m 36,32.17 c -1.52,0 -2.89,0.59 -3.93,1.54 L 17.82,25.4 C 17.93,24.95 18,24.48 18,24 18,23.52 17.93,23.05 17.82,22.6 l 14.1,-8.23 c 1.07,1 2.5,1.62 4.08,1.62 3.31,0 6,-2.69 6,-6 0,-3.31 -2.69,-6 -6,-6 -3.31,0 -6,2.69 -6,6 0,0.48 0.07,0.95 0.18,1.4 l -14.1,8.23 C 15.01,18.62 13.58,18 12,18 c -3.31,0 -6,2.69 -6,6 0,3.31 2.69,6 6,6 1.58,0 3.01,-0.62 4.08,-1.62 l 14.25,8.31 c -0.1,0.42 -0.16,0.86 -0.16,1.31 0,3.22 2.61,5.83 5.83,5.83 3.22,0 5.83,-2.61 5.83,-5.83 0,-3.22 -2.61,-5.83 -5.83,-5.83 z"
       id="path6"
       style="fill:none;fill-opacity:1;stroke:#ffffff;stroke-opacity:1;stroke-width:6;stroke-miterlimit:4;stroke-dasharray:none;stroke-linejoin:round" />
  </g>
  <g
     inkscape:groupmode="layer"
     id="layer2"
     inkscape:label="a">
    <path
       inkscape:connector-curvature="0"
       d="m 36,32.17 c -1.52,0 -2.89,0.59 -3.93,1.54 L 17.82,25.4 C 17.93,24.95 18,24.48 18,24 18,23.52 17.93,23.05 17.82,22.6 l 14.1,-8.23 c 1.07,1 2.5,1.62 4.08,1.62 3.31,0 6,-2.69 6,-6 0,-3.31 -2.69,-6 -6,-6 -3.31,0 -6,2.69 -6,6 0,0.48 0.07,0.95 0.18,1.4 l -14.1,8.23 C 15.01,18.62 13.58,18 12,18 c -3.31,0 -6,2.69 -6,6 0,3.31 2.69,6 6,6 1.58,0 3.01,-0.62 4.08,-1.62 l 14.25,8.31 c -0.1,0.42 -0.16,0.86 -0.16,1.31 0,3.22 2.61,5.83 5.83,5.83 3.22,0 5.83,-2.61 5.83,-5.83 0,-3.22 -2.61,-5.83 -5.83,-5.83 z"
       id="path6-8"
       style="fill:#3f51b5;fill-opacity:1;stroke:none" />
  </g>
</svg>
